<svg id="Capa_1" enable-background="new 0 0 512 512" height="512" viewBox="0 0 512 512" width="512" xmlns="http://www.w3.org/2000/svg"><g><g><g><g><g><g><g><circle cx="256" cy="256" fill="#ff73a5" r="256"/></g></g></g></g></g></g><path d="m512 256c0-5.784-.192-11.523-.569-17.211l-114.386-114.385-272.324 272.938 114.09 114.09c5.681.377 11.413.568 17.189.568 141.385 0 256-114.615 256-256z" fill="#f73484"/><g><g><g><g><g><g><circle cx="256" cy="256" fill="#ffce00" r="192.915"/></g></g></g></g></g></g><g><g><g><g><g><g><path d="m256 63.085c-.025 0-.05.001-.074.001v385.829c.025 0 .05.001.074.001 106.544 0 192.915-86.371 192.915-192.915s-86.371-192.916-192.915-192.916z" fill="#fdba12"/></g></g></g></g></g></g><g><g><g><g><g><g><path d="m256 373.145c-45.442 0-87.725-24.515-110.348-63.978l26.026-14.92c17.291 30.161 49.602 48.898 84.322 48.898 34.721 0 67.031-18.737 84.321-48.898l26.027 14.92c-22.622 39.464-64.906 63.978-110.348 63.978z" fill="#555a66"/></g></g></g></g></g></g><g><g><g><g><g><g><path d="m340.321 294.247c-17.29 30.161-49.601 48.898-84.321 48.898-.025 0-.05-.001-.074-.001v30c.025 0 .05.001.074.001 45.442 0 87.726-24.515 110.349-63.978z" fill="#333940"/></g></g></g></g></g></g><g><g><circle cx="172.173" cy="207.83" fill="#555a66" r="26.435"/></g><g><circle cx="339.827" cy="207.83" fill="#333940" r="26.435"/></g></g></g></svg>